<?xml version="1.0" encoding="UTF-8" standalone="no"?><svg xmlns="http://www.w3.org/2000/svg" xmlns:xlink="http://www.w3.org/1999/xlink" contentStyleType="text/css" height="1104px" preserveAspectRatio="none" style="width:828px;height:1104px;background:#FFFFFF;" version="1.1" viewBox="0 0 828 1104" width="828px" zoomAndPan="magnify"><defs/><g><rect fill="#FFFFFF" height="273.1641" style="stroke:#181818;stroke-width:1.0;" width="10" x="190" y="112.9219"/><rect fill="#FFFFFF" height="273.1641" style="stroke:#181818;stroke-width:1.0;" width="10" x="190" y="432.2734"/><rect fill="#FFFFFF" height="273.1641" style="stroke:#181818;stroke-width:1.0;" width="10" x="190" y="751.625"/><rect fill="#FFFFFF" height="212.4609" style="stroke:#181818;stroke-width:1.0;" width="10" x="395" y="143.2734"/><rect fill="#FFFFFF" height="212.4609" style="stroke:#181818;stroke-width:1.0;" width="10" x="395" y="462.625"/><rect fill="#FFFFFF" height="212.4609" style="stroke:#181818;stroke-width:1.0;" width="10" x="395" y="781.9766"/><rect fill="#FFFFFF" height="151.7578" style="stroke:#181818;stroke-width:1.0;" width="10" x="510" y="173.625"/><rect fill="#FFFFFF" height="151.7578" style="stroke:#181818;stroke-width:1.0;" width="10" x="510" y="492.9766"/><rect fill="#FFFFFF" height="151.7578" style="stroke:#181818;stroke-width:1.0;" width="10" x="510" y="812.3281"/><rect fill="#FFFFFF" height="91.0547" style="stroke:#181818;stroke-width:1.0;" width="10" x="636" y="203.9766"/><rect fill="#FFFFFF" height="91.0547" style="stroke:#181818;stroke-width:1.0;" width="10" x="636" y="523.3281"/><rect fill="#FFFFFF" height="91.0547" style="stroke:#181818;stroke-width:1.0;" width="10" x="636" y="842.6797"/><rect fill="#FFFFFF" height="30.3516" style="stroke:#181818;stroke-width:1.0;" width="10" x="760" y="234.3281"/><rect fill="#FFFFFF" height="30.3516" style="stroke:#181818;stroke-width:1.0;" width="10" x="760" y="553.6797"/><rect fill="#FFFFFF" height="30.3516" style="stroke:#181818;stroke-width:1.0;" width="10" x="760" y="873.0313"/><rect fill="none" height="960.5703" style="stroke:#000000;stroke-width:1.5;" width="818.5" x="3" y="72.2188"/><line style="stroke:#181818;stroke-width:0.5;stroke-dasharray:5.0,5.0;" x1="194.5" x2="194.5" y1="55.2188" y2="1049.7891"/><line style="stroke:#181818;stroke-width:0.5;stroke-dasharray:5.0,5.0;" x1="400" x2="400" y1="55.2188" y2="1049.7891"/><line style="stroke:#181818;stroke-width:0.5;stroke-dasharray:5.0,5.0;" x1="515" x2="515" y1="55.2188" y2="1049.7891"/><line style="stroke:#181818;stroke-width:0.5;stroke-dasharray:5.0,5.0;" x1="641" x2="641" y1="55.2188" y2="1049.7891"/><line style="stroke:#181818;stroke-width:0.5;stroke-dasharray:5.0,5.0;" x1="764.5" x2="764.5" y1="55.2188" y2="1049.7891"/><rect fill="#E2E2F0" height="49.2188" rx="2.5" ry="2.5" style="stroke:#181818;stroke-width:0.5;" width="91" x="149.5" y="5"/><text fill="#000000" font-family="sans-serif" font-size="14" font-style="italic" lengthAdjust="spacing" textLength="77" x="156.5" y="26.5332">«javaScript»</text><text fill="#000000" font-family="sans-serif" font-size="14" lengthAdjust="spacing" textLength="44" x="173" y="44.1426">:server</text><rect fill="#E2E2F0" height="49.2188" rx="2.5" ry="2.5" style="stroke:#181818;stroke-width:0.5;" width="91" x="149.5" y="1048.7891"/><text fill="#000000" font-family="sans-serif" font-size="14" font-style="italic" lengthAdjust="spacing" textLength="77" x="156.5" y="1070.3223">«javaScript»</text><text fill="#000000" font-family="sans-serif" font-size="14" lengthAdjust="spacing" textLength="44" x="173" y="1087.9316">:server</text><rect fill="#E2E2F0" height="49.2188" rx="2.5" ry="2.5" style="stroke:#181818;stroke-width:0.5;" width="74" x="363" y="5"/><text fill="#000000" font-family="sans-serif" font-size="14" font-style="italic" lengthAdjust="spacing" textLength="54" x="373" y="26.5332">«router»</text><text fill="#000000" font-family="sans-serif" font-size="14" lengthAdjust="spacing" textLength="60" x="370" y="44.1426">:hospitals</text><rect fill="#E2E2F0" height="49.2188" rx="2.5" ry="2.5" style="stroke:#181818;stroke-width:0.5;" width="74" x="363" y="1048.7891"/><text fill="#000000" font-family="sans-serif" font-size="14" font-style="italic" lengthAdjust="spacing" textLength="54" x="373" y="1070.3223">«router»</text><text fill="#000000" font-family="sans-serif" font-size="14" lengthAdjust="spacing" textLength="60" x="370" y="1087.9316">:hospitals</text><rect fill="#E2E2F0" height="49.2188" rx="2.5" ry="2.5" style="stroke:#181818;stroke-width:0.5;" width="96" x="467" y="5"/><text fill="#000000" font-family="sans-serif" font-size="14" font-style="italic" lengthAdjust="spacing" textLength="82" x="474" y="26.5332">«controllers»</text><text fill="#000000" font-family="sans-serif" font-size="14" lengthAdjust="spacing" textLength="60" x="485" y="44.1426">:hospitals</text><rect fill="#E2E2F0" height="49.2188" rx="2.5" ry="2.5" style="stroke:#181818;stroke-width:0.5;" width="96" x="467" y="1048.7891"/><text fill="#000000" font-family="sans-serif" font-size="14" font-style="italic" lengthAdjust="spacing" textLength="82" x="474" y="1070.3223">«controllers»</text><text fill="#000000" font-family="sans-serif" font-size="14" lengthAdjust="spacing" textLength="60" x="485" y="1087.9316">:hospitals</text><rect fill="#E2E2F0" height="49.2188" rx="2.5" ry="2.5" style="stroke:#181818;stroke-width:0.5;" width="68" x="607" y="5"/><text fill="#000000" font-family="sans-serif" font-size="14" font-style="italic" lengthAdjust="spacing" textLength="54" x="614" y="26.5332">«model»</text><text fill="#000000" font-family="sans-serif" font-size="14" lengthAdjust="spacing" textLength="54" x="614" y="44.1426">:Hospital</text><rect fill="#E2E2F0" height="49.2188" rx="2.5" ry="2.5" style="stroke:#181818;stroke-width:0.5;" width="68" x="607" y="1048.7891"/><text fill="#000000" font-family="sans-serif" font-size="14" font-style="italic" lengthAdjust="spacing" textLength="54" x="614" y="1070.3223">«model»</text><text fill="#000000" font-family="sans-serif" font-size="14" lengthAdjust="spacing" textLength="54" x="614" y="1087.9316">:Hospital</text><rect fill="#E2E2F0" height="49.2188" rx="2.5" ry="2.5" style="stroke:#181818;stroke-width:0.5;" width="93" x="718.5" y="5"/><text fill="#000000" font-family="sans-serif" font-size="14" font-style="italic" lengthAdjust="spacing" textLength="79" x="725.5" y="26.5332">«MongoDB»</text><text fill="#000000" font-family="sans-serif" font-size="14" lengthAdjust="spacing" textLength="60" x="735" y="44.1426">:hospitals</text><rect fill="#E2E2F0" height="49.2188" rx="2.5" ry="2.5" style="stroke:#181818;stroke-width:0.5;" width="93" x="718.5" y="1048.7891"/><text fill="#000000" font-family="sans-serif" font-size="14" font-style="italic" lengthAdjust="spacing" textLength="79" x="725.5" y="1070.3223">«MongoDB»</text><text fill="#000000" font-family="sans-serif" font-size="14" lengthAdjust="spacing" textLength="60" x="735" y="1087.9316">:hospitals</text><rect fill="#FFFFFF" height="273.1641" style="stroke:#181818;stroke-width:1.0;" width="10" x="190" y="112.9219"/><rect fill="#FFFFFF" height="273.1641" style="stroke:#181818;stroke-width:1.0;" width="10" x="190" y="432.2734"/><rect fill="#FFFFFF" height="273.1641" style="stroke:#181818;stroke-width:1.0;" width="10" x="190" y="751.625"/><rect fill="#FFFFFF" height="212.4609" style="stroke:#181818;stroke-width:1.0;" width="10" x="395" y="143.2734"/><rect fill="#FFFFFF" height="212.4609" style="stroke:#181818;stroke-width:1.0;" width="10" x="395" y="462.625"/><rect fill="#FFFFFF" height="212.4609" style="stroke:#181818;stroke-width:1.0;" width="10" x="395" y="781.9766"/><rect fill="#FFFFFF" height="151.7578" style="stroke:#181818;stroke-width:1.0;" width="10" x="510" y="173.625"/><rect fill="#FFFFFF" height="151.7578" style="stroke:#181818;stroke-width:1.0;" width="10" x="510" y="492.9766"/><rect fill="#FFFFFF" height="151.7578" style="stroke:#181818;stroke-width:1.0;" width="10" x="510" y="812.3281"/><rect fill="#FFFFFF" height="91.0547" style="stroke:#181818;stroke-width:1.0;" width="10" x="636" y="203.9766"/><rect fill="#FFFFFF" height="91.0547" style="stroke:#181818;stroke-width:1.0;" width="10" x="636" y="523.3281"/><rect fill="#FFFFFF" height="91.0547" style="stroke:#181818;stroke-width:1.0;" width="10" x="636" y="842.6797"/><rect fill="#FFFFFF" height="30.3516" style="stroke:#181818;stroke-width:1.0;" width="10" x="760" y="234.3281"/><rect fill="#FFFFFF" height="30.3516" style="stroke:#181818;stroke-width:1.0;" width="10" x="760" y="553.6797"/><rect fill="#FFFFFF" height="30.3516" style="stroke:#181818;stroke-width:1.0;" width="10" x="760" y="873.0313"/><path d="M3,72.2188 L64,72.2188 L64,80.5703 L54,90.5703 L3,90.5703 L3,72.2188 " fill="#EEEEEE" style="stroke:#000000;stroke-width:1.5;"/><rect fill="none" height="960.5703" style="stroke:#000000;stroke-width:1.5;" width="818.5" x="3" y="72.2188"/><text fill="#000000" font-family="sans-serif" font-size="13" font-weight="bold" lengthAdjust="spacing" textLength="16" x="18" y="86.7139">alt</text><text fill="#000000" font-family="sans-serif" font-size="11" font-weight="bold" lengthAdjust="spacing" textLength="84" x="79" y="85.6377">[POST request]</text><polygon fill="#181818" points="178,108.9219,188,112.9219,178,116.9219,182,112.9219" style="stroke:#181818;stroke-width:1.0;"/><line style="stroke:#181818;stroke-width:1.0;" x1="0" x2="184" y1="112.9219" y2="112.9219"/><text fill="#000000" font-family="sans-serif" font-size="13" lengthAdjust="spacing" textLength="121" x="7" y="108.0654">req.post("/hospitals")</text><polygon fill="#181818" points="383,139.2734,393,143.2734,383,147.2734,387,143.2734" style="stroke:#181818;stroke-width:1.0;"/><line style="stroke:#181818;stroke-width:1.0;" x1="200" x2="389" y1="143.2734" y2="143.2734"/><text fill="#000000" font-family="sans-serif" font-size="13" lengthAdjust="spacing" textLength="176" x="207" y="138.417">app.use("/hospitals",hospitals)</text><polygon fill="#181818" points="498,169.625,508,173.625,498,177.625,502,173.625" style="stroke:#181818;stroke-width:1.0;"/><line style="stroke:#181818;stroke-width:1.0;" x1="405" x2="504" y1="173.625" y2="173.625"/><text fill="#000000" font-family="sans-serif" font-size="13" lengthAdjust="spacing" textLength="83" x="412" y="168.7686">createHospital</text><polygon fill="#181818" points="624,199.9766,634,203.9766,624,207.9766,628,203.9766" style="stroke:#181818;stroke-width:1.0;"/><line style="stroke:#181818;stroke-width:1.0;" x1="520" x2="630" y1="203.9766" y2="203.9766"/><text fill="#000000" font-family="sans-serif" font-size="13" lengthAdjust="spacing" textLength="94" x="527" y="199.1201">create(req.body)</text><polygon fill="#181818" points="748,230.3281,758,234.3281,748,238.3281,752,234.3281" style="stroke:#181818;stroke-width:1.0;"/><line style="stroke:#181818;stroke-width:1.0;" x1="646" x2="754" y1="234.3281" y2="234.3281"/><text fill="#000000" font-family="sans-serif" font-size="13" lengthAdjust="spacing" textLength="95" x="653" y="229.4717">HospitalSchema</text><polygon fill="#181818" points="657,260.6797,647,264.6797,657,268.6797,653,264.6797" style="stroke:#181818;stroke-width:1.0;"/><line style="stroke:#181818;stroke-width:1.0;stroke-dasharray:2.0,2.0;" x1="651" x2="764" y1="264.6797" y2="264.6797"/><text fill="#000000" font-family="sans-serif" font-size="13" lengthAdjust="spacing" textLength="45" x="663" y="259.8232">hospital</text><polygon fill="#181818" points="531,291.0313,521,295.0313,531,299.0313,527,295.0313" style="stroke:#181818;stroke-width:1.0;"/><line style="stroke:#181818;stroke-width:1.0;stroke-dasharray:2.0,2.0;" x1="525" x2="640" y1="295.0313" y2="295.0313"/><text fill="#000000" font-family="sans-serif" font-size="13" lengthAdjust="spacing" textLength="45" x="537" y="290.1748">hospital</text><polygon fill="#181818" points="416,321.3828,406,325.3828,416,329.3828,412,325.3828" style="stroke:#181818;stroke-width:1.0;"/><line style="stroke:#181818;stroke-width:1.0;stroke-dasharray:2.0,2.0;" x1="410" x2="514" y1="325.3828" y2="325.3828"/><text fill="#000000" font-family="sans-serif" font-size="13" lengthAdjust="spacing" textLength="53" x="422" y="320.5264">response</text><polygon fill="#181818" points="211,351.7344,201,355.7344,211,359.7344,207,355.7344" style="stroke:#181818;stroke-width:1.0;"/><line style="stroke:#181818;stroke-width:1.0;stroke-dasharray:2.0,2.0;" x1="205" x2="399" y1="355.7344" y2="355.7344"/><text fill="#000000" font-family="sans-serif" font-size="13" lengthAdjust="spacing" textLength="53" x="217" y="350.8779">response</text><polygon fill="#181818" points="11,382.0859,1,386.0859,11,390.0859,7,386.0859" style="stroke:#181818;stroke-width:1.0;"/><line style="stroke:#181818;stroke-width:1.0;stroke-dasharray:2.0,2.0;" x1="5" x2="194" y1="386.0859" y2="386.0859"/><text fill="#000000" font-family="sans-serif" font-size="13" lengthAdjust="spacing" textLength="53" x="17" y="381.2295">response</text><line style="stroke:#000000;stroke-width:1.0;stroke-dasharray:2.0,2.0;" x1="3" x2="821.5" y1="395.0859" y2="395.0859"/><text fill="#000000" font-family="sans-serif" font-size="11" font-weight="bold" lengthAdjust="spacing" textLength="76" x="8" y="406.5049">[PUT request]</text><polygon fill="#181818" points="178,428.2734,188,432.2734,178,436.2734,182,432.2734" style="stroke:#181818;stroke-width:1.0;"/><line style="stroke:#181818;stroke-width:1.0;" x1="0" x2="184" y1="432.2734" y2="432.2734"/><text fill="#000000" font-family="sans-serif" font-size="13" lengthAdjust="spacing" textLength="139" x="7" y="427.417">req.PUT("/hospitals/:id")</text><polygon fill="#181818" points="383,458.625,393,462.625,383,466.625,387,462.625" style="stroke:#181818;stroke-width:1.0;"/><line style="stroke:#181818;stroke-width:1.0;" x1="200" x2="389" y1="462.625" y2="462.625"/><text fill="#000000" font-family="sans-serif" font-size="13" lengthAdjust="spacing" textLength="176" x="207" y="457.7686">app.use("/hospitals",hospitals)</text><polygon fill="#181818" points="498,488.9766,508,492.9766,498,496.9766,502,492.9766" style="stroke:#181818;stroke-width:1.0;"/><line style="stroke:#181818;stroke-width:1.0;" x1="405" x2="504" y1="492.9766" y2="492.9766"/><text fill="#000000" font-family="sans-serif" font-size="13" lengthAdjust="spacing" textLength="86" x="412" y="488.1201">updateHospital</text><polygon fill="#181818" points="624,519.3281,634,523.3281,624,527.3281,628,523.3281" style="stroke:#181818;stroke-width:1.0;"/><line style="stroke:#181818;stroke-width:1.0;" x1="520" x2="630" y1="523.3281" y2="523.3281"/><text fill="#000000" font-family="sans-serif" font-size="13" lengthAdjust="spacing" textLength="97" x="527" y="518.4717">update(req.body)</text><polygon fill="#181818" points="748,549.6797,758,553.6797,748,557.6797,752,553.6797" style="stroke:#181818;stroke-width:1.0;"/><line style="stroke:#181818;stroke-width:1.0;" x1="646" x2="754" y1="553.6797" y2="553.6797"/><text fill="#000000" font-family="sans-serif" font-size="13" lengthAdjust="spacing" textLength="95" x="653" y="548.8232">HospitalSchema</text><polygon fill="#181818" points="657,580.0313,647,584.0313,657,588.0313,653,584.0313" style="stroke:#181818;stroke-width:1.0;"/><line style="stroke:#181818;stroke-width:1.0;stroke-dasharray:2.0,2.0;" x1="651" x2="764" y1="584.0313" y2="584.0313"/><text fill="#000000" font-family="sans-serif" font-size="13" lengthAdjust="spacing" textLength="45" x="663" y="579.1748">hospital</text><polygon fill="#181818" points="531,610.3828,521,614.3828,531,618.3828,527,614.3828" style="stroke:#181818;stroke-width:1.0;"/><line style="stroke:#181818;stroke-width:1.0;stroke-dasharray:2.0,2.0;" x1="525" x2="640" y1="614.3828" y2="614.3828"/><text fill="#000000" font-family="sans-serif" font-size="13" lengthAdjust="spacing" textLength="45" x="537" y="609.5264">hospital</text><polygon fill="#181818" points="416,640.7344,406,644.7344,416,648.7344,412,644.7344" style="stroke:#181818;stroke-width:1.0;"/><line style="stroke:#181818;stroke-width:1.0;stroke-dasharray:2.0,2.0;" x1="410" x2="514" y1="644.7344" y2="644.7344"/><text fill="#000000" font-family="sans-serif" font-size="13" lengthAdjust="spacing" textLength="53" x="422" y="639.8779">response</text><polygon fill="#181818" points="211,671.0859,201,675.0859,211,679.0859,207,675.0859" style="stroke:#181818;stroke-width:1.0;"/><line style="stroke:#181818;stroke-width:1.0;stroke-dasharray:2.0,2.0;" x1="205" x2="399" y1="675.0859" y2="675.0859"/><text fill="#000000" font-family="sans-serif" font-size="13" lengthAdjust="spacing" textLength="53" x="217" y="670.2295">response</text><polygon fill="#181818" points="11,701.4375,1,705.4375,11,709.4375,7,705.4375" style="stroke:#181818;stroke-width:1.0;"/><line style="stroke:#181818;stroke-width:1.0;stroke-dasharray:2.0,2.0;" x1="5" x2="194" y1="705.4375" y2="705.4375"/><text fill="#000000" font-family="sans-serif" font-size="13" lengthAdjust="spacing" textLength="53" x="17" y="700.5811">response</text><line style="stroke:#000000;stroke-width:1.0;stroke-dasharray:2.0,2.0;" x1="3" x2="821.5" y1="714.4375" y2="714.4375"/><text fill="#000000" font-family="sans-serif" font-size="11" font-weight="bold" lengthAdjust="spacing" textLength="94" x="8" y="725.8564">[DELETE request]</text><polygon fill="#181818" points="178,747.625,188,751.625,178,755.625,182,751.625" style="stroke:#181818;stroke-width:1.0;"/><line style="stroke:#181818;stroke-width:1.0;" x1="0" x2="184" y1="751.625" y2="751.625"/><text fill="#000000" font-family="sans-serif" font-size="13" lengthAdjust="spacing" textLength="164" x="7" y="746.7686">req.DELETE("/hospitals/:id")</text><polygon fill="#181818" points="383,777.9766,393,781.9766,383,785.9766,387,781.9766" style="stroke:#181818;stroke-width:1.0;"/><line style="stroke:#181818;stroke-width:1.0;" x1="200" x2="389" y1="781.9766" y2="781.9766"/><text fill="#000000" font-family="sans-serif" font-size="13" lengthAdjust="spacing" textLength="176" x="207" y="777.1201">app.use("/hospitals",hospitals)</text><polygon fill="#181818" points="498,808.3281,508,812.3281,498,816.3281,502,812.3281" style="stroke:#181818;stroke-width:1.0;"/><line style="stroke:#181818;stroke-width:1.0;" x1="405" x2="504" y1="812.3281" y2="812.3281"/><text fill="#000000" font-family="sans-serif" font-size="13" lengthAdjust="spacing" textLength="82" x="412" y="807.4717">deleteHospital</text><polygon fill="#181818" points="624,838.6797,634,842.6797,624,846.6797,628,842.6797" style="stroke:#181818;stroke-width:1.0;"/><line style="stroke:#181818;stroke-width:1.0;" x1="520" x2="630" y1="842.6797" y2="842.6797"/><text fill="#000000" font-family="sans-serif" font-size="13" lengthAdjust="spacing" textLength="93" x="527" y="837.8232">delete(req.body)</text><polygon fill="#181818" points="748,869.0313,758,873.0313,748,877.0313,752,873.0313" style="stroke:#181818;stroke-width:1.0;"/><line style="stroke:#181818;stroke-width:1.0;" x1="646" x2="754" y1="873.0313" y2="873.0313"/><text fill="#000000" font-family="sans-serif" font-size="13" lengthAdjust="spacing" textLength="95" x="653" y="868.1748">HospitalSchema</text><polygon fill="#181818" points="657,899.3828,647,903.3828,657,907.3828,653,903.3828" style="stroke:#181818;stroke-width:1.0;"/><line style="stroke:#181818;stroke-width:1.0;stroke-dasharray:2.0,2.0;" x1="651" x2="764" y1="903.3828" y2="903.3828"/><text fill="#000000" font-family="sans-serif" font-size="13" lengthAdjust="spacing" textLength="45" x="663" y="898.5264">hospital</text><polygon fill="#181818" points="531,929.7344,521,933.7344,531,937.7344,527,933.7344" style="stroke:#181818;stroke-width:1.0;"/><line style="stroke:#181818;stroke-width:1.0;stroke-dasharray:2.0,2.0;" x1="525" x2="640" y1="933.7344" y2="933.7344"/><text fill="#000000" font-family="sans-serif" font-size="13" lengthAdjust="spacing" textLength="45" x="537" y="928.8779">hospital</text><polygon fill="#181818" points="416,960.0859,406,964.0859,416,968.0859,412,964.0859" style="stroke:#181818;stroke-width:1.0;"/><line style="stroke:#181818;stroke-width:1.0;stroke-dasharray:2.0,2.0;" x1="410" x2="514" y1="964.0859" y2="964.0859"/><text fill="#000000" font-family="sans-serif" font-size="13" lengthAdjust="spacing" textLength="53" x="422" y="959.2295">response</text><polygon fill="#181818" points="211,990.4375,201,994.4375,211,998.4375,207,994.4375" style="stroke:#181818;stroke-width:1.0;"/><line style="stroke:#181818;stroke-width:1.0;stroke-dasharray:2.0,2.0;" x1="205" x2="399" y1="994.4375" y2="994.4375"/><text fill="#000000" font-family="sans-serif" font-size="13" lengthAdjust="spacing" textLength="53" x="217" y="989.5811">response</text><polygon fill="#181818" points="11,1020.7891,1,1024.7891,11,1028.7891,7,1024.7891" style="stroke:#181818;stroke-width:1.0;"/><line style="stroke:#181818;stroke-width:1.0;stroke-dasharray:2.0,2.0;" x1="5" x2="194" y1="1024.7891" y2="1024.7891"/><text fill="#000000" font-family="sans-serif" font-size="13" lengthAdjust="spacing" textLength="53" x="17" y="1019.9326">response</text><!--MD5=[5caedc850a5d5be1363956042f520ebf]
@startuml 
participant ":server" as ser  << javaScript >>
participant ":hospitals" as hos  << router >>
participant ":hospitals" as con  << controllers >>
participant ":Hospital" as mod  << model >>
participant ":hospitals" as db  << MongoDB >>




alt POST request
    -> ser: req.post("/hospitals")
    activate ser
    ser -> hos: app.use("/hospitals",hospitals)
    activate hos
    hos -> con: createHospital
    activate con
    con -> mod: create(req.body)
    activate mod
    mod -> db: HospitalSchema
    activate db
    db - -> mod: hospital
    deactivate db
    mod - -> con: hospital
    deactivate mod
    con - -> hos: response
    deactivate con
    hos - -> ser: response
    deactivate hos
    <- - ser: response
    deactivate ser
else PUT request
    -> ser: req.PUT("/hospitals/:id")
    activate ser
    ser -> hos: app.use("/hospitals",hospitals)
    activate hos
    hos -> con: updateHospital
    activate con
    con -> mod: update(req.body)
    activate mod
    mod -> db: HospitalSchema
    activate db
    db - -> mod: hospital
    deactivate db
    mod - -> con: hospital
    deactivate mod
    con - -> hos: response
    deactivate con
    hos - -> ser: response
    deactivate hos
    <- - ser: response
    deactivate ser
else DELETE request
    -> ser: req.DELETE("/hospitals/:id")
    activate ser
    ser -> hos: app.use("/hospitals",hospitals)
    activate hos
    hos -> con: deleteHospital
    activate con
    con -> mod: delete(req.body)
    activate mod
    mod -> db: HospitalSchema
    activate db
    db - -> mod: hospital
    deactivate db
    mod - -> con: hospital
    deactivate mod
    con - -> hos: response
    deactivate con
    hos - -> ser: response
    deactivate hos
    <- - ser: response
    deactivate ser
end



@enduml

PlantUML version 1.2022.7(Tue Aug 23 00:01:30 ICT 2022)
(GPL source distribution)
Java Runtime: Java(TM) SE Runtime Environment
JVM: Java HotSpot(TM) 64-Bit Server VM
Default Encoding: MS874
Language: en
Country: US
--></g></svg>