<?xml version="1.0" encoding="UTF-8" standalone="no"?><svg xmlns="http://www.w3.org/2000/svg" xmlns:xlink="http://www.w3.org/1999/xlink" contentStyleType="text/css" height="1742px" preserveAspectRatio="none" style="width:982px;height:1742px;background:#FFFFFF;" version="1.1" viewBox="0 0 982 1742" width="982px" zoomAndPan="magnify"><defs/><g><rect fill="#FFFFFF" height="273.1641" style="stroke:#181818;stroke-width:1.0;" width="10" x="190" y="112.9219"/><rect fill="#FFFFFF" height="273.1641" style="stroke:#181818;stroke-width:1.0;" width="10" x="190" y="432.2734"/><rect fill="#FFFFFF" height="273.1641" style="stroke:#181818;stroke-width:1.0;" width="10" x="190" y="751.625"/><rect fill="#FFFFFF" height="273.1641" style="stroke:#181818;stroke-width:1.0;" width="10" x="190" y="1070.9766"/><rect fill="#FFFFFF" height="273.1641" style="stroke:#181818;stroke-width:1.0;" width="10" x="190" y="1390.3281"/><rect fill="#FFFFFF" height="212.4609" style="stroke:#181818;stroke-width:1.0;" width="10" x="395" y="143.2734"/><rect fill="#FFFFFF" height="212.4609" style="stroke:#181818;stroke-width:1.0;" width="10" x="395" y="462.625"/><rect fill="#FFFFFF" height="212.4609" style="stroke:#181818;stroke-width:1.0;" width="10" x="395" y="781.9766"/><rect fill="#FFFFFF" height="212.4609" style="stroke:#181818;stroke-width:1.0;" width="10" x="395" y="1101.3281"/><rect fill="#FFFFFF" height="212.4609" style="stroke:#181818;stroke-width:1.0;" width="10" x="395" y="1420.6797"/><rect fill="#FFFFFF" height="151.7578" style="stroke:#181818;stroke-width:1.0;" width="10" x="510" y="173.625"/><rect fill="#FFFFFF" height="151.7578" style="stroke:#181818;stroke-width:1.0;" width="10" x="510" y="492.9766"/><rect fill="#FFFFFF" height="151.7578" style="stroke:#181818;stroke-width:1.0;" width="10" x="510" y="812.3281"/><rect fill="#FFFFFF" height="151.7578" style="stroke:#181818;stroke-width:1.0;" width="10" x="510" y="1131.6797"/><rect fill="#FFFFFF" height="151.7578" style="stroke:#181818;stroke-width:1.0;" width="10" x="510" y="1451.0313"/><rect fill="#FFFFFF" height="91.0547" style="stroke:#181818;stroke-width:1.0;" width="10" x="790" y="203.9766"/><rect fill="#FFFFFF" height="91.0547" style="stroke:#181818;stroke-width:1.0;" width="10" x="790" y="523.3281"/><rect fill="#FFFFFF" height="91.0547" style="stroke:#181818;stroke-width:1.0;" width="10" x="790" y="842.6797"/><rect fill="#FFFFFF" height="91.0547" style="stroke:#181818;stroke-width:1.0;" width="10" x="790" y="1162.0313"/><rect fill="#FFFFFF" height="91.0547" style="stroke:#181818;stroke-width:1.0;" width="10" x="790" y="1481.3828"/><rect fill="#FFFFFF" height="30.3516" style="stroke:#181818;stroke-width:1.0;" width="10" x="914" y="234.3281"/><rect fill="#FFFFFF" height="30.3516" style="stroke:#181818;stroke-width:1.0;" width="10" x="914" y="553.6797"/><rect fill="#FFFFFF" height="30.3516" style="stroke:#181818;stroke-width:1.0;" width="10" x="914" y="873.0313"/><rect fill="#FFFFFF" height="30.3516" style="stroke:#181818;stroke-width:1.0;" width="10" x="914" y="1192.3828"/><rect fill="#FFFFFF" height="30.3516" style="stroke:#181818;stroke-width:1.0;" width="10" x="914" y="1511.7344"/><rect fill="none" height="1599.2734" style="stroke:#000000;stroke-width:1.5;" width="972.5" x="3" y="72.2188"/><line style="stroke:#181818;stroke-width:0.5;stroke-dasharray:5.0,5.0;" x1="194.5" x2="194.5" y1="55.2188" y2="1688.4922"/><line style="stroke:#181818;stroke-width:0.5;stroke-dasharray:5.0,5.0;" x1="400" x2="400" y1="55.2188" y2="1688.4922"/><line style="stroke:#181818;stroke-width:0.5;stroke-dasharray:5.0,5.0;" x1="515" x2="515" y1="55.2188" y2="1688.4922"/><line style="stroke:#181818;stroke-width:0.5;stroke-dasharray:5.0,5.0;" x1="795" x2="795" y1="55.2188" y2="1688.4922"/><line style="stroke:#181818;stroke-width:0.5;stroke-dasharray:5.0,5.0;" x1="918.5" x2="918.5" y1="55.2188" y2="1688.4922"/><rect fill="#E2E2F0" height="49.2188" rx="2.5" ry="2.5" style="stroke:#181818;stroke-width:0.5;" width="91" x="149.5" y="5"/><text fill="#000000" font-family="sans-serif" font-size="14" font-style="italic" lengthAdjust="spacing" textLength="77" x="156.5" y="26.5332">«javaScript»</text><text fill="#000000" font-family="sans-serif" font-size="14" lengthAdjust="spacing" textLength="44" x="173" y="44.1426">:server</text><rect fill="#E2E2F0" height="49.2188" rx="2.5" ry="2.5" style="stroke:#181818;stroke-width:0.5;" width="91" x="149.5" y="1687.4922"/><text fill="#000000" font-family="sans-serif" font-size="14" font-style="italic" lengthAdjust="spacing" textLength="77" x="156.5" y="1709.0254">«javaScript»</text><text fill="#000000" font-family="sans-serif" font-size="14" lengthAdjust="spacing" textLength="44" x="173" y="1726.6348">:server</text><rect fill="#E2E2F0" height="49.2188" rx="2.5" ry="2.5" style="stroke:#181818;stroke-width:0.5;" width="74" x="363" y="5"/><text fill="#000000" font-family="sans-serif" font-size="14" font-style="italic" lengthAdjust="spacing" textLength="54" x="373" y="26.5332">«router»</text><text fill="#000000" font-family="sans-serif" font-size="14" lengthAdjust="spacing" textLength="60" x="370" y="44.1426">:hospitals</text><rect fill="#E2E2F0" height="49.2188" rx="2.5" ry="2.5" style="stroke:#181818;stroke-width:0.5;" width="74" x="363" y="1687.4922"/><text fill="#000000" font-family="sans-serif" font-size="14" font-style="italic" lengthAdjust="spacing" textLength="54" x="373" y="1709.0254">«router»</text><text fill="#000000" font-family="sans-serif" font-size="14" lengthAdjust="spacing" textLength="60" x="370" y="1726.6348">:hospitals</text><rect fill="#E2E2F0" height="49.2188" rx="2.5" ry="2.5" style="stroke:#181818;stroke-width:0.5;" width="96" x="467" y="5"/><text fill="#000000" font-family="sans-serif" font-size="14" font-style="italic" lengthAdjust="spacing" textLength="82" x="474" y="26.5332">«controllers»</text><text fill="#000000" font-family="sans-serif" font-size="14" lengthAdjust="spacing" textLength="60" x="485" y="44.1426">:hospitals</text><rect fill="#E2E2F0" height="49.2188" rx="2.5" ry="2.5" style="stroke:#181818;stroke-width:0.5;" width="96" x="467" y="1687.4922"/><text fill="#000000" font-family="sans-serif" font-size="14" font-style="italic" lengthAdjust="spacing" textLength="82" x="474" y="1709.0254">«controllers»</text><text fill="#000000" font-family="sans-serif" font-size="14" lengthAdjust="spacing" textLength="60" x="485" y="1726.6348">:hospitals</text><rect fill="#E2E2F0" height="49.2188" rx="2.5" ry="2.5" style="stroke:#181818;stroke-width:0.5;" width="68" x="761" y="5"/><text fill="#000000" font-family="sans-serif" font-size="14" font-style="italic" lengthAdjust="spacing" textLength="54" x="768" y="26.5332">«model»</text><text fill="#000000" font-family="sans-serif" font-size="14" lengthAdjust="spacing" textLength="54" x="768" y="44.1426">:Hospital</text><rect fill="#E2E2F0" height="49.2188" rx="2.5" ry="2.5" style="stroke:#181818;stroke-width:0.5;" width="68" x="761" y="1687.4922"/><text fill="#000000" font-family="sans-serif" font-size="14" font-style="italic" lengthAdjust="spacing" textLength="54" x="768" y="1709.0254">«model»</text><text fill="#000000" font-family="sans-serif" font-size="14" lengthAdjust="spacing" textLength="54" x="768" y="1726.6348">:Hospital</text><rect fill="#E2E2F0" height="49.2188" rx="2.5" ry="2.5" style="stroke:#181818;stroke-width:0.5;" width="93" x="872.5" y="5"/><text fill="#000000" font-family="sans-serif" font-size="14" font-style="italic" lengthAdjust="spacing" textLength="79" x="879.5" y="26.5332">«MongoDB»</text><text fill="#000000" font-family="sans-serif" font-size="14" lengthAdjust="spacing" textLength="60" x="889" y="44.1426">:hospitals</text><rect fill="#E2E2F0" height="49.2188" rx="2.5" ry="2.5" style="stroke:#181818;stroke-width:0.5;" width="93" x="872.5" y="1687.4922"/><text fill="#000000" font-family="sans-serif" font-size="14" font-style="italic" lengthAdjust="spacing" textLength="79" x="879.5" y="1709.0254">«MongoDB»</text><text fill="#000000" font-family="sans-serif" font-size="14" lengthAdjust="spacing" textLength="60" x="889" y="1726.6348">:hospitals</text><rect fill="#FFFFFF" height="273.1641" style="stroke:#181818;stroke-width:1.0;" width="10" x="190" y="112.9219"/><rect fill="#FFFFFF" height="273.1641" style="stroke:#181818;stroke-width:1.0;" width="10" x="190" y="432.2734"/><rect fill="#FFFFFF" height="273.1641" style="stroke:#181818;stroke-width:1.0;" width="10" x="190" y="751.625"/><rect fill="#FFFFFF" height="273.1641" style="stroke:#181818;stroke-width:1.0;" width="10" x="190" y="1070.9766"/><rect fill="#FFFFFF" height="273.1641" style="stroke:#181818;stroke-width:1.0;" width="10" x="190" y="1390.3281"/><rect fill="#FFFFFF" height="212.4609" style="stroke:#181818;stroke-width:1.0;" width="10" x="395" y="143.2734"/><rect fill="#FFFFFF" height="212.4609" style="stroke:#181818;stroke-width:1.0;" width="10" x="395" y="462.625"/><rect fill="#FFFFFF" height="212.4609" style="stroke:#181818;stroke-width:1.0;" width="10" x="395" y="781.9766"/><rect fill="#FFFFFF" height="212.4609" style="stroke:#181818;stroke-width:1.0;" width="10" x="395" y="1101.3281"/><rect fill="#FFFFFF" height="212.4609" style="stroke:#181818;stroke-width:1.0;" width="10" x="395" y="1420.6797"/><rect fill="#FFFFFF" height="151.7578" style="stroke:#181818;stroke-width:1.0;" width="10" x="510" y="173.625"/><rect fill="#FFFFFF" height="151.7578" style="stroke:#181818;stroke-width:1.0;" width="10" x="510" y="492.9766"/><rect fill="#FFFFFF" height="151.7578" style="stroke:#181818;stroke-width:1.0;" width="10" x="510" y="812.3281"/><rect fill="#FFFFFF" height="151.7578" style="stroke:#181818;stroke-width:1.0;" width="10" x="510" y="1131.6797"/><rect fill="#FFFFFF" height="151.7578" style="stroke:#181818;stroke-width:1.0;" width="10" x="510" y="1451.0313"/><rect fill="#FFFFFF" height="91.0547" style="stroke:#181818;stroke-width:1.0;" width="10" x="790" y="203.9766"/><rect fill="#FFFFFF" height="91.0547" style="stroke:#181818;stroke-width:1.0;" width="10" x="790" y="523.3281"/><rect fill="#FFFFFF" height="91.0547" style="stroke:#181818;stroke-width:1.0;" width="10" x="790" y="842.6797"/><rect fill="#FFFFFF" height="91.0547" style="stroke:#181818;stroke-width:1.0;" width="10" x="790" y="1162.0313"/><rect fill="#FFFFFF" height="91.0547" style="stroke:#181818;stroke-width:1.0;" width="10" x="790" y="1481.3828"/><rect fill="#FFFFFF" height="30.3516" style="stroke:#181818;stroke-width:1.0;" width="10" x="914" y="234.3281"/><rect fill="#FFFFFF" height="30.3516" style="stroke:#181818;stroke-width:1.0;" width="10" x="914" y="553.6797"/><rect fill="#FFFFFF" height="30.3516" style="stroke:#181818;stroke-width:1.0;" width="10" x="914" y="873.0313"/><rect fill="#FFFFFF" height="30.3516" style="stroke:#181818;stroke-width:1.0;" width="10" x="914" y="1192.3828"/><rect fill="#FFFFFF" height="30.3516" style="stroke:#181818;stroke-width:1.0;" width="10" x="914" y="1511.7344"/><path d="M3,72.2188 L64,72.2188 L64,80.5703 L54,90.5703 L3,90.5703 L3,72.2188 " fill="#EEEEEE" style="stroke:#000000;stroke-width:1.5;"/><rect fill="none" height="1599.2734" style="stroke:#000000;stroke-width:1.5;" width="972.5" x="3" y="72.2188"/><text fill="#000000" font-family="sans-serif" font-size="13" font-weight="bold" lengthAdjust="spacing" textLength="16" x="18" y="86.7139">alt</text><text fill="#000000" font-family="sans-serif" font-size="11" font-weight="bold" lengthAdjust="spacing" textLength="84" x="79" y="85.6377">[POST request]</text><polygon fill="#181818" points="178,108.9219,188,112.9219,178,116.9219,182,112.9219" style="stroke:#181818;stroke-width:1.0;"/><line style="stroke:#181818;stroke-width:1.0;" x1="0" x2="184" y1="112.9219" y2="112.9219"/><text fill="#000000" font-family="sans-serif" font-size="13" lengthAdjust="spacing" textLength="121" x="7" y="108.0654">req.post("/hospitals")</text><polygon fill="#181818" points="383,139.2734,393,143.2734,383,147.2734,387,143.2734" style="stroke:#181818;stroke-width:1.0;"/><line style="stroke:#181818;stroke-width:1.0;" x1="200" x2="389" y1="143.2734" y2="143.2734"/><text fill="#000000" font-family="sans-serif" font-size="13" lengthAdjust="spacing" textLength="176" x="207" y="138.417">app.use("/hospitals",hospitals)</text><polygon fill="#181818" points="498,169.625,508,173.625,498,177.625,502,173.625" style="stroke:#181818;stroke-width:1.0;"/><line style="stroke:#181818;stroke-width:1.0;" x1="405" x2="504" y1="173.625" y2="173.625"/><text fill="#000000" font-family="sans-serif" font-size="13" lengthAdjust="spacing" textLength="83" x="412" y="168.7686">createHospital</text><polygon fill="#181818" points="778,199.9766,788,203.9766,778,207.9766,782,203.9766" style="stroke:#181818;stroke-width:1.0;"/><line style="stroke:#181818;stroke-width:1.0;" x1="520" x2="784" y1="203.9766" y2="203.9766"/><text fill="#000000" font-family="sans-serif" font-size="13" lengthAdjust="spacing" textLength="94" x="527" y="199.1201">create(req.body)</text><polygon fill="#181818" points="902,230.3281,912,234.3281,902,238.3281,906,234.3281" style="stroke:#181818;stroke-width:1.0;"/><line style="stroke:#181818;stroke-width:1.0;" x1="800" x2="908" y1="234.3281" y2="234.3281"/><text fill="#000000" font-family="sans-serif" font-size="13" lengthAdjust="spacing" textLength="95" x="807" y="229.4717">HospitalSchema</text><polygon fill="#181818" points="811,260.6797,801,264.6797,811,268.6797,807,264.6797" style="stroke:#181818;stroke-width:1.0;"/><line style="stroke:#181818;stroke-width:1.0;stroke-dasharray:2.0,2.0;" x1="805" x2="918" y1="264.6797" y2="264.6797"/><text fill="#000000" font-family="sans-serif" font-size="13" lengthAdjust="spacing" textLength="45" x="817" y="259.8232">hospital</text><polygon fill="#181818" points="531,291.0313,521,295.0313,531,299.0313,527,295.0313" style="stroke:#181818;stroke-width:1.0;"/><line style="stroke:#181818;stroke-width:1.0;stroke-dasharray:2.0,2.0;" x1="525" x2="794" y1="295.0313" y2="295.0313"/><text fill="#000000" font-family="sans-serif" font-size="13" lengthAdjust="spacing" textLength="45" x="537" y="290.1748">hospital</text><polygon fill="#181818" points="416,321.3828,406,325.3828,416,329.3828,412,325.3828" style="stroke:#181818;stroke-width:1.0;"/><line style="stroke:#181818;stroke-width:1.0;stroke-dasharray:2.0,2.0;" x1="410" x2="514" y1="325.3828" y2="325.3828"/><text fill="#000000" font-family="sans-serif" font-size="13" lengthAdjust="spacing" textLength="53" x="422" y="320.5264">response</text><polygon fill="#181818" points="211,351.7344,201,355.7344,211,359.7344,207,355.7344" style="stroke:#181818;stroke-width:1.0;"/><line style="stroke:#181818;stroke-width:1.0;stroke-dasharray:2.0,2.0;" x1="205" x2="399" y1="355.7344" y2="355.7344"/><text fill="#000000" font-family="sans-serif" font-size="13" lengthAdjust="spacing" textLength="53" x="217" y="350.8779">response</text><polygon fill="#181818" points="11,382.0859,1,386.0859,11,390.0859,7,386.0859" style="stroke:#181818;stroke-width:1.0;"/><line style="stroke:#181818;stroke-width:1.0;stroke-dasharray:2.0,2.0;" x1="5" x2="194" y1="386.0859" y2="386.0859"/><text fill="#000000" font-family="sans-serif" font-size="13" lengthAdjust="spacing" textLength="53" x="17" y="381.2295">response</text><line style="stroke:#000000;stroke-width:1.0;stroke-dasharray:2.0,2.0;" x1="3" x2="975.5" y1="395.0859" y2="395.0859"/><text fill="#000000" font-family="sans-serif" font-size="11" font-weight="bold" lengthAdjust="spacing" textLength="76" x="8" y="406.5049">[PUT request]</text><polygon fill="#181818" points="178,428.2734,188,432.2734,178,436.2734,182,432.2734" style="stroke:#181818;stroke-width:1.0;"/><line style="stroke:#181818;stroke-width:1.0;" x1="0" x2="184" y1="432.2734" y2="432.2734"/><text fill="#000000" font-family="sans-serif" font-size="13" lengthAdjust="spacing" textLength="139" x="7" y="427.417">req.PUT("/hospitals/:id")</text><polygon fill="#181818" points="383,458.625,393,462.625,383,466.625,387,462.625" style="stroke:#181818;stroke-width:1.0;"/><line style="stroke:#181818;stroke-width:1.0;" x1="200" x2="389" y1="462.625" y2="462.625"/><text fill="#000000" font-family="sans-serif" font-size="13" lengthAdjust="spacing" textLength="176" x="207" y="457.7686">app.use("/hospitals",hospitals)</text><polygon fill="#181818" points="498,488.9766,508,492.9766,498,496.9766,502,492.9766" style="stroke:#181818;stroke-width:1.0;"/><line style="stroke:#181818;stroke-width:1.0;" x1="405" x2="504" y1="492.9766" y2="492.9766"/><text fill="#000000" font-family="sans-serif" font-size="13" lengthAdjust="spacing" textLength="86" x="412" y="488.1201">updateHospital</text><polygon fill="#181818" points="778,519.3281,788,523.3281,778,527.3281,782,523.3281" style="stroke:#181818;stroke-width:1.0;"/><line style="stroke:#181818;stroke-width:1.0;" x1="520" x2="784" y1="523.3281" y2="523.3281"/><text fill="#000000" font-family="sans-serif" font-size="13" lengthAdjust="spacing" textLength="251" x="527" y="518.4717">findByIdAndUpdate(req.params.id,req.body)</text><polygon fill="#181818" points="902,549.6797,912,553.6797,902,557.6797,906,553.6797" style="stroke:#181818;stroke-width:1.0;"/><line style="stroke:#181818;stroke-width:1.0;" x1="800" x2="908" y1="553.6797" y2="553.6797"/><text fill="#000000" font-family="sans-serif" font-size="13" lengthAdjust="spacing" textLength="95" x="807" y="548.8232">HospitalSchema</text><polygon fill="#181818" points="811,580.0313,801,584.0313,811,588.0313,807,584.0313" style="stroke:#181818;stroke-width:1.0;"/><line style="stroke:#181818;stroke-width:1.0;stroke-dasharray:2.0,2.0;" x1="805" x2="918" y1="584.0313" y2="584.0313"/><text fill="#000000" font-family="sans-serif" font-size="13" lengthAdjust="spacing" textLength="45" x="817" y="579.1748">hospital</text><polygon fill="#181818" points="531,610.3828,521,614.3828,531,618.3828,527,614.3828" style="stroke:#181818;stroke-width:1.0;"/><line style="stroke:#181818;stroke-width:1.0;stroke-dasharray:2.0,2.0;" x1="525" x2="794" y1="614.3828" y2="614.3828"/><text fill="#000000" font-family="sans-serif" font-size="13" lengthAdjust="spacing" textLength="45" x="537" y="609.5264">hospital</text><polygon fill="#181818" points="416,640.7344,406,644.7344,416,648.7344,412,644.7344" style="stroke:#181818;stroke-width:1.0;"/><line style="stroke:#181818;stroke-width:1.0;stroke-dasharray:2.0,2.0;" x1="410" x2="514" y1="644.7344" y2="644.7344"/><text fill="#000000" font-family="sans-serif" font-size="13" lengthAdjust="spacing" textLength="53" x="422" y="639.8779">response</text><polygon fill="#181818" points="211,671.0859,201,675.0859,211,679.0859,207,675.0859" style="stroke:#181818;stroke-width:1.0;"/><line style="stroke:#181818;stroke-width:1.0;stroke-dasharray:2.0,2.0;" x1="205" x2="399" y1="675.0859" y2="675.0859"/><text fill="#000000" font-family="sans-serif" font-size="13" lengthAdjust="spacing" textLength="53" x="217" y="670.2295">response</text><polygon fill="#181818" points="11,701.4375,1,705.4375,11,709.4375,7,705.4375" style="stroke:#181818;stroke-width:1.0;"/><line style="stroke:#181818;stroke-width:1.0;stroke-dasharray:2.0,2.0;" x1="5" x2="194" y1="705.4375" y2="705.4375"/><text fill="#000000" font-family="sans-serif" font-size="13" lengthAdjust="spacing" textLength="53" x="17" y="700.5811">response</text><line style="stroke:#000000;stroke-width:1.0;stroke-dasharray:2.0,2.0;" x1="3" x2="975.5" y1="714.4375" y2="714.4375"/><text fill="#000000" font-family="sans-serif" font-size="11" font-weight="bold" lengthAdjust="spacing" textLength="94" x="8" y="725.8564">[DELETE request]</text><polygon fill="#181818" points="178,747.625,188,751.625,178,755.625,182,751.625" style="stroke:#181818;stroke-width:1.0;"/><line style="stroke:#181818;stroke-width:1.0;" x1="0" x2="184" y1="751.625" y2="751.625"/><text fill="#000000" font-family="sans-serif" font-size="13" lengthAdjust="spacing" textLength="164" x="7" y="746.7686">req.DELETE("/hospitals/:id")</text><polygon fill="#181818" points="383,777.9766,393,781.9766,383,785.9766,387,781.9766" style="stroke:#181818;stroke-width:1.0;"/><line style="stroke:#181818;stroke-width:1.0;" x1="200" x2="389" y1="781.9766" y2="781.9766"/><text fill="#000000" font-family="sans-serif" font-size="13" lengthAdjust="spacing" textLength="176" x="207" y="777.1201">app.use("/hospitals",hospitals)</text><polygon fill="#181818" points="498,808.3281,508,812.3281,498,816.3281,502,812.3281" style="stroke:#181818;stroke-width:1.0;"/><line style="stroke:#181818;stroke-width:1.0;" x1="405" x2="504" y1="812.3281" y2="812.3281"/><text fill="#000000" font-family="sans-serif" font-size="13" lengthAdjust="spacing" textLength="82" x="412" y="807.4717">deleteHospital</text><polygon fill="#181818" points="778,838.6797,788,842.6797,778,846.6797,782,842.6797" style="stroke:#181818;stroke-width:1.0;"/><line style="stroke:#181818;stroke-width:1.0;" x1="520" x2="784" y1="842.6797" y2="842.6797"/><text fill="#000000" font-family="sans-serif" font-size="13" lengthAdjust="spacing" textLength="197" x="527" y="837.8232">findByIdAndDelete(req.params.id);</text><polygon fill="#181818" points="902,869.0313,912,873.0313,902,877.0313,906,873.0313" style="stroke:#181818;stroke-width:1.0;"/><line style="stroke:#181818;stroke-width:1.0;" x1="800" x2="908" y1="873.0313" y2="873.0313"/><text fill="#000000" font-family="sans-serif" font-size="13" lengthAdjust="spacing" textLength="95" x="807" y="868.1748">HospitalSchema</text><polygon fill="#181818" points="811,899.3828,801,903.3828,811,907.3828,807,903.3828" style="stroke:#181818;stroke-width:1.0;"/><line style="stroke:#181818;stroke-width:1.0;stroke-dasharray:2.0,2.0;" x1="805" x2="918" y1="903.3828" y2="903.3828"/><text fill="#000000" font-family="sans-serif" font-size="13" lengthAdjust="spacing" textLength="45" x="817" y="898.5264">hospital</text><polygon fill="#181818" points="531,929.7344,521,933.7344,531,937.7344,527,933.7344" style="stroke:#181818;stroke-width:1.0;"/><line style="stroke:#181818;stroke-width:1.0;stroke-dasharray:2.0,2.0;" x1="525" x2="794" y1="933.7344" y2="933.7344"/><text fill="#000000" font-family="sans-serif" font-size="13" lengthAdjust="spacing" textLength="45" x="537" y="928.8779">hospital</text><polygon fill="#181818" points="416,960.0859,406,964.0859,416,968.0859,412,964.0859" style="stroke:#181818;stroke-width:1.0;"/><line style="stroke:#181818;stroke-width:1.0;stroke-dasharray:2.0,2.0;" x1="410" x2="514" y1="964.0859" y2="964.0859"/><text fill="#000000" font-family="sans-serif" font-size="13" lengthAdjust="spacing" textLength="53" x="422" y="959.2295">response</text><polygon fill="#181818" points="211,990.4375,201,994.4375,211,998.4375,207,994.4375" style="stroke:#181818;stroke-width:1.0;"/><line style="stroke:#181818;stroke-width:1.0;stroke-dasharray:2.0,2.0;" x1="205" x2="399" y1="994.4375" y2="994.4375"/><text fill="#000000" font-family="sans-serif" font-size="13" lengthAdjust="spacing" textLength="53" x="217" y="989.5811">response</text><polygon fill="#181818" points="11,1020.7891,1,1024.7891,11,1028.7891,7,1024.7891" style="stroke:#181818;stroke-width:1.0;"/><line style="stroke:#181818;stroke-width:1.0;stroke-dasharray:2.0,2.0;" x1="5" x2="194" y1="1024.7891" y2="1024.7891"/><text fill="#000000" font-family="sans-serif" font-size="13" lengthAdjust="spacing" textLength="53" x="17" y="1019.9326">response</text><line style="stroke:#000000;stroke-width:1.0;stroke-dasharray:2.0,2.0;" x1="3" x2="975.5" y1="1033.7891" y2="1033.7891"/><text fill="#000000" font-family="sans-serif" font-size="11" font-weight="bold" lengthAdjust="spacing" textLength="76" x="8" y="1045.208">[GET request]</text><polygon fill="#181818" points="178,1066.9766,188,1070.9766,178,1074.9766,182,1070.9766" style="stroke:#181818;stroke-width:1.0;"/><line style="stroke:#181818;stroke-width:1.0;" x1="0" x2="184" y1="1070.9766" y2="1070.9766"/><text fill="#000000" font-family="sans-serif" font-size="13" lengthAdjust="spacing" textLength="140" x="7" y="1066.1201">req.GET("/hospitals/:id")</text><polygon fill="#181818" points="383,1097.3281,393,1101.3281,383,1105.3281,387,1101.3281" style="stroke:#181818;stroke-width:1.0;"/><line style="stroke:#181818;stroke-width:1.0;" x1="200" x2="389" y1="1101.3281" y2="1101.3281"/><text fill="#000000" font-family="sans-serif" font-size="13" lengthAdjust="spacing" textLength="176" x="207" y="1096.4717">app.use("/hospitals",hospitals)</text><polygon fill="#181818" points="498,1127.6797,508,1131.6797,498,1135.6797,502,1131.6797" style="stroke:#181818;stroke-width:1.0;"/><line style="stroke:#181818;stroke-width:1.0;" x1="405" x2="504" y1="1131.6797" y2="1131.6797"/><text fill="#000000" font-family="sans-serif" font-size="13" lengthAdjust="spacing" textLength="65" x="412" y="1126.8232">getHospital</text><polygon fill="#181818" points="778,1158.0313,788,1162.0313,778,1166.0313,782,1162.0313" style="stroke:#181818;stroke-width:1.0;"/><line style="stroke:#181818;stroke-width:1.0;" x1="520" x2="784" y1="1162.0313" y2="1162.0313"/><text fill="#000000" font-family="sans-serif" font-size="13" lengthAdjust="spacing" textLength="107" x="527" y="1157.1748">find(req.params.id)</text><polygon fill="#181818" points="902,1188.3828,912,1192.3828,902,1196.3828,906,1192.3828" style="stroke:#181818;stroke-width:1.0;"/><line style="stroke:#181818;stroke-width:1.0;" x1="800" x2="908" y1="1192.3828" y2="1192.3828"/><text fill="#000000" font-family="sans-serif" font-size="13" lengthAdjust="spacing" textLength="95" x="807" y="1187.5264">HospitalSchema</text><polygon fill="#181818" points="811,1218.7344,801,1222.7344,811,1226.7344,807,1222.7344" style="stroke:#181818;stroke-width:1.0;"/><line style="stroke:#181818;stroke-width:1.0;stroke-dasharray:2.0,2.0;" x1="805" x2="918" y1="1222.7344" y2="1222.7344"/><text fill="#000000" font-family="sans-serif" font-size="13" lengthAdjust="spacing" textLength="45" x="817" y="1217.8779">hospital</text><polygon fill="#181818" points="531,1249.0859,521,1253.0859,531,1257.0859,527,1253.0859" style="stroke:#181818;stroke-width:1.0;"/><line style="stroke:#181818;stroke-width:1.0;stroke-dasharray:2.0,2.0;" x1="525" x2="794" y1="1253.0859" y2="1253.0859"/><text fill="#000000" font-family="sans-serif" font-size="13" lengthAdjust="spacing" textLength="45" x="537" y="1248.2295">hospital</text><polygon fill="#181818" points="416,1279.4375,406,1283.4375,416,1287.4375,412,1283.4375" style="stroke:#181818;stroke-width:1.0;"/><line style="stroke:#181818;stroke-width:1.0;stroke-dasharray:2.0,2.0;" x1="410" x2="514" y1="1283.4375" y2="1283.4375"/><text fill="#000000" font-family="sans-serif" font-size="13" lengthAdjust="spacing" textLength="53" x="422" y="1278.5811">response</text><polygon fill="#181818" points="211,1309.7891,201,1313.7891,211,1317.7891,207,1313.7891" style="stroke:#181818;stroke-width:1.0;"/><line style="stroke:#181818;stroke-width:1.0;stroke-dasharray:2.0,2.0;" x1="205" x2="399" y1="1313.7891" y2="1313.7891"/><text fill="#000000" font-family="sans-serif" font-size="13" lengthAdjust="spacing" textLength="53" x="217" y="1308.9326">response</text><polygon fill="#181818" points="11,1340.1406,1,1344.1406,11,1348.1406,7,1344.1406" style="stroke:#181818;stroke-width:1.0;"/><line style="stroke:#181818;stroke-width:1.0;stroke-dasharray:2.0,2.0;" x1="5" x2="194" y1="1344.1406" y2="1344.1406"/><text fill="#000000" font-family="sans-serif" font-size="13" lengthAdjust="spacing" textLength="53" x="17" y="1339.2842">response</text><line style="stroke:#000000;stroke-width:1.0;stroke-dasharray:2.0,2.0;" x1="3" x2="975.5" y1="1353.1406" y2="1353.1406"/><text fill="#000000" font-family="sans-serif" font-size="11" font-weight="bold" lengthAdjust="spacing" textLength="101" x="8" y="1364.5596">[GET ALL request]</text><polygon fill="#181818" points="178,1386.3281,188,1390.3281,178,1394.3281,182,1390.3281" style="stroke:#181818;stroke-width:1.0;"/><line style="stroke:#181818;stroke-width:1.0;" x1="0" x2="184" y1="1390.3281" y2="1390.3281"/><text fill="#000000" font-family="sans-serif" font-size="13" lengthAdjust="spacing" textLength="122" x="7" y="1385.4717">req.GET("/hospitals")</text><polygon fill="#181818" points="383,1416.6797,393,1420.6797,383,1424.6797,387,1420.6797" style="stroke:#181818;stroke-width:1.0;"/><line style="stroke:#181818;stroke-width:1.0;" x1="200" x2="389" y1="1420.6797" y2="1420.6797"/><text fill="#000000" font-family="sans-serif" font-size="13" lengthAdjust="spacing" textLength="176" x="207" y="1415.8232">app.use("/hospitals",hospitals)</text><polygon fill="#181818" points="498,1447.0313,508,1451.0313,498,1455.0313,502,1451.0313" style="stroke:#181818;stroke-width:1.0;"/><line style="stroke:#181818;stroke-width:1.0;" x1="405" x2="504" y1="1451.0313" y2="1451.0313"/><text fill="#000000" font-family="sans-serif" font-size="13" lengthAdjust="spacing" textLength="80" x="412" y="1446.1748">getAllHospital</text><polygon fill="#181818" points="778,1477.3828,788,1481.3828,778,1485.3828,782,1481.3828" style="stroke:#181818;stroke-width:1.0;"/><line style="stroke:#181818;stroke-width:1.0;" x1="520" x2="784" y1="1481.3828" y2="1481.3828"/><text fill="#000000" font-family="sans-serif" font-size="13" lengthAdjust="spacing" textLength="28" x="527" y="1476.5264">find()</text><polygon fill="#181818" points="902,1507.7344,912,1511.7344,902,1515.7344,906,1511.7344" style="stroke:#181818;stroke-width:1.0;"/><line style="stroke:#181818;stroke-width:1.0;" x1="800" x2="908" y1="1511.7344" y2="1511.7344"/><text fill="#000000" font-family="sans-serif" font-size="13" lengthAdjust="spacing" textLength="95" x="807" y="1506.8779">HospitalSchema</text><polygon fill="#181818" points="811,1538.0859,801,1542.0859,811,1546.0859,807,1542.0859" style="stroke:#181818;stroke-width:1.0;"/><line style="stroke:#181818;stroke-width:1.0;stroke-dasharray:2.0,2.0;" x1="805" x2="918" y1="1542.0859" y2="1542.0859"/><text fill="#000000" font-family="sans-serif" font-size="13" lengthAdjust="spacing" textLength="45" x="817" y="1537.2295">hospital</text><polygon fill="#181818" points="531,1568.4375,521,1572.4375,531,1576.4375,527,1572.4375" style="stroke:#181818;stroke-width:1.0;"/><line style="stroke:#181818;stroke-width:1.0;stroke-dasharray:2.0,2.0;" x1="525" x2="794" y1="1572.4375" y2="1572.4375"/><text fill="#000000" font-family="sans-serif" font-size="13" lengthAdjust="spacing" textLength="45" x="537" y="1567.5811">hospital</text><polygon fill="#181818" points="416,1598.7891,406,1602.7891,416,1606.7891,412,1602.7891" style="stroke:#181818;stroke-width:1.0;"/><line style="stroke:#181818;stroke-width:1.0;stroke-dasharray:2.0,2.0;" x1="410" x2="514" y1="1602.7891" y2="1602.7891"/><text fill="#000000" font-family="sans-serif" font-size="13" lengthAdjust="spacing" textLength="53" x="422" y="1597.9326">response</text><polygon fill="#181818" points="211,1629.1406,201,1633.1406,211,1637.1406,207,1633.1406" style="stroke:#181818;stroke-width:1.0;"/><line style="stroke:#181818;stroke-width:1.0;stroke-dasharray:2.0,2.0;" x1="205" x2="399" y1="1633.1406" y2="1633.1406"/><text fill="#000000" font-family="sans-serif" font-size="13" lengthAdjust="spacing" textLength="53" x="217" y="1628.2842">response</text><polygon fill="#181818" points="11,1659.4922,1,1663.4922,11,1667.4922,7,1663.4922" style="stroke:#181818;stroke-width:1.0;"/><line style="stroke:#181818;stroke-width:1.0;stroke-dasharray:2.0,2.0;" x1="5" x2="194" y1="1663.4922" y2="1663.4922"/><text fill="#000000" font-family="sans-serif" font-size="13" lengthAdjust="spacing" textLength="53" x="17" y="1658.6357">response</text><!--MD5=[23354573f639e758d2893d8a47f3fb9f]
@startuml 
participant ":server" as ser  << javaScript >>
participant ":hospitals" as hos  << router >>
participant ":hospitals" as con  << controllers >>
participant ":Hospital" as mod  << model >>
participant ":hospitals" as db  << MongoDB >>




alt POST request
    -> ser: req.post("/hospitals")
    activate ser
    ser -> hos: app.use("/hospitals",hospitals)
    activate hos
    hos -> con: createHospital
    activate con
    con -> mod: create(req.body)
    activate mod
    mod -> db: HospitalSchema
    activate db
    db - -> mod: hospital
    deactivate db
    mod - -> con: hospital
    deactivate mod
    con - -> hos: response
    deactivate con
    hos - -> ser: response
    deactivate hos
    <- - ser: response
    deactivate ser
else PUT request
    -> ser: req.PUT("/hospitals/:id")
    activate ser
    ser -> hos: app.use("/hospitals",hospitals)
    activate hos
    hos -> con: updateHospital
    activate con
    con -> mod: findByIdAndUpdate(req.params.id,req.body)
    activate mod
    mod -> db: HospitalSchema
    activate db
    db - -> mod: hospital
    deactivate db
    mod - -> con: hospital
    deactivate mod
    con - -> hos: response
    deactivate con
    hos - -> ser: response
    deactivate hos
    <- - ser: response
    deactivate ser
else DELETE request
    -> ser: req.DELETE("/hospitals/:id")
    activate ser
    ser -> hos: app.use("/hospitals",hospitals)
    activate hos
    hos -> con: deleteHospital
    activate con
    con -> mod: findByIdAndDelete(req.params.id);
    activate mod
    mod -> db: HospitalSchema
    activate db
    db - -> mod: hospital
    deactivate db
    mod - -> con: hospital
    deactivate mod
    con - -> hos: response
    deactivate con
    hos - -> ser: response
    deactivate hos
    <- - ser: response
    deactivate ser
else GET request
    -> ser: req.GET("/hospitals/:id")
    activate ser
    ser -> hos: app.use("/hospitals",hospitals)
    activate hos
    hos -> con: getHospital
    activate con
    con -> mod: find(req.params.id)
    activate mod
    mod -> db: HospitalSchema
    activate db
    db - -> mod: hospital
    deactivate db
    mod - -> con: hospital
    deactivate mod
    con - -> hos: response
    deactivate con
    hos - -> ser: response
    deactivate hos
    <- - ser: response
    deactivate ser
else GET ALL request
    -> ser: req.GET("/hospitals")
    activate ser
    ser -> hos: app.use("/hospitals",hospitals)
    activate hos
    hos -> con: getAllHospital
    activate con
    con -> mod: find()
    activate mod
    mod -> db: HospitalSchema
    activate db
    db - -> mod: hospital
    deactivate db
    mod - -> con: hospital
    deactivate mod
    con - -> hos: response
    deactivate con
    hos - -> ser: response
    deactivate hos
    <- - ser: response
    deactivate ser
end



@enduml

PlantUML version 1.2022.7(Tue Aug 23 00:01:30 ICT 2022)
(GPL source distribution)
Java Runtime: Java(TM) SE Runtime Environment
JVM: Java HotSpot(TM) 64-Bit Server VM
Default Encoding: MS874
Language: en
Country: US
--></g></svg>